# xmcd
#
# Track frame offsets: 
#        150
#        21060
#        37550
#
# Disc length: 745 seconds
#
# Revision: 0
# Processed by: cddbd v1.5.2PL0 Copyright (c) Steve Scherf et al.
# Submitted via: ExactAudioCopy v0.99pb5
#
DISCID=1102e703
DTITLE=Whiteout - Detroit [single]
DYEAR=1994
DGENRE=Rock
TTITLE0=Detroit
TTITLE1=Just Passin' Through, Kid
TTITLE2=Dee Troyt
EXTD=
EXTT0=
EXTT1=
EXTT2=
PLAYORDER=
